<?xml version="1.0" encoding="UTF-8"?>
<!DOCTYPE svg PUBLIC "-//W3C//DTD SVG 1.1//EN" "http://www.w3.org/Graphics/SVG/1.1/DTD/svg11.dtd">
<!-- Creator: CorelDRAW X8 -->
<svg xmlns="http://www.w3.org/2000/svg" xml:space="preserve" width="64px" height="30px" version="1.1" shape-rendering="geometricPrecision" text-rendering="geometricPrecision" image-rendering="optimizeQuality" fill-rule="evenodd" clip-rule="evenodd"
viewBox="0 0 640 300"
 xmlns:xlink="http://www.w3.org/1999/xlink">
 <g id="Layer_x0020_1">
  <metadata id="CorelCorpID_0Corel-Layer"/>
  <rect fill="#96ADC8" width="640" height="300"/>
  <path fill="#FFFCFF" d="M246 84l0 2c2,2 0,3 5,4 2,1 4,2 6,3l11 4c1,1 3,12 3,14 4,19 7,38 11,56 1,6 0,9 7,9 0,1 -3,10 -4,12 -1,2 -2,4 0,6 1,2 3,2 6,2 0,0 -1,2 -1,3 -5,9 1,21 13,21 6,-1 10,-4 12,-9 4,-8 -2,-14 -2,-15l31 0c-1,1 -3,3 -4,7 -2,16 20,23 27,9 4,-9 -2,-15 -2,-16 2,0 8,1 8,-4 0,-5 -5,-4 -8,-4 -23,0 -48,0 -71,0 0,-1 1,-5 2,-6 0,-1 2,-6 2,-6l71 0c3,0 4,-1 5,-4 0,-1 19,-60 20,-61l0 -2c-1,-2 -1,-3 -3,-4 -2,0 -4,0 -6,0l-39 -2c-8,0 -16,-1 -25,-1 -4,0 -23,-1 -25,-1 -4,1 -4,6 -1,9 2,1 9,1 12,1 8,0 17,1 25,1 17,1 34,1 51,2 0,2 -8,24 -9,27 -2,6 -4,13 -6,19 0,1 -1,3 -1,4 0,1 -1,2 -1,3l-75 0c0,-2 -2,-12 -3,-15 -2,-14 -5,-28 -7,-42 -5,-22 -1,-18 -12,-23 -2,-1 -16,-7 -18,-7 -4,0 -4,2 -5,4zm55 115c-9,2 -5,14 3,13 3,-1 5,-4 4,-8 0,-3 -4,-6 -7,-5zm52 0c-3,1 -6,4 -5,8 1,3 4,6 8,4 8,-2 5,-14 -3,-12z"/>
 </g>
</svg>
