<?xml version="1.0" encoding="UTF-8"?>
<!DOCTYPE svg PUBLIC "-//W3C//DTD SVG 1.1//EN" "http://www.w3.org/Graphics/SVG/1.1/DTD/svg11.dtd">
<!-- Creator: CorelDRAW X8 -->
<svg xmlns="http://www.w3.org/2000/svg" xml:space="preserve" width="70%" height="70%" version="1.1" shape-rendering="geometricPrecision" text-rendering="geometricPrecision" image-rendering="optimizeQuality" fill-rule="evenodd" clip-rule="evenodd"
viewBox="0 0 3850 999"
 xmlns:xlink="http://www.w3.org/1999/xlink">
 <g id="Layer_x0020_1">
  <metadata id="CorelCorpID_0Corel-Layer"/>
  <g id="_977073414912">
   <path fill="#50514F" fill-rule="nonzero" d="M302 992l0 -989 385 0c65,0 119,6 162,20 44,14 81,42 112,85 32,43 47,93 47,151 0,55 -16,103 -47,143 -32,40 -76,66 -133,77 70,12 123,40 159,85 35,44 53,97 53,158 0,76 -25,140 -75,192 -50,52 -127,78 -231,78l-432 0zm168 -574l218 0c44,0 80,-13 105,-40 26,-26 39,-60 39,-101 0,-46 -15,-79 -44,-101 -30,-21 -64,-32 -104,-32l-214 0 0 274zm0 426l231 0c49,0 87,-13 116,-39 28,-25 42,-60 42,-103 0,-42 -14,-76 -43,-103 -29,-26 -67,-39 -114,-39l-232 0 0 284z"/>
   <polygon fill="#96ADC8" points="68,992 68,8 -1,8 -1,992 "/>
   <rect fill="#50514F" x="68" y="418" width="560" height="141"/>
   <polygon fill="#5F7D99" points="226,992 226,8 134,8 134,992 "/>
   <path fill="#7491AD" fill-rule="nonzero" d="M1379 260l53 -256 34 0 -53 256 -34 0zm94 0l53 -256 36 0 42 96c13,29 23,54 31,74 4,12 9,27 15,47 3,-22 7,-44 12,-67l31 -150 33 0 -53 256 -34 0 -62 -148c-11,-26 -20,-50 -27,-73 -3,19 -6,41 -11,65l-33 156 -33 0zm341 0l21 -99 -79 -157 37 0 38 75c8,16 16,33 24,52 8,-16 20,-33 35,-51l60 -76 40 0 -122 160 -20 96 -34 0zm540 -256l34 0 -32 157c-3,13 -5,23 -5,29 0,14 6,25 17,33 10,9 24,13 40,13 13,0 25,-3 37,-9 11,-6 20,-15 26,-27 7,-11 12,-30 18,-55l29 -141 34 0 -31 150c-6,26 -13,46 -21,61 -9,15 -21,26 -36,35 -16,9 -34,14 -54,14 -19,0 -36,-3 -50,-10 -14,-6 -25,-15 -32,-26 -7,-11 -10,-24 -10,-38 0,-9 2,-24 7,-46l29 -140zm212 173l33 -3 0 9c0,10 2,19 7,27 4,8 12,15 22,19 10,4 23,7 37,7 21,0 36,-5 47,-14 11,-9 16,-19 16,-30 0,-8 -3,-16 -9,-22 -5,-7 -21,-16 -47,-27 -20,-9 -34,-15 -41,-20 -12,-7 -20,-16 -25,-25 -6,-8 -9,-18 -9,-30 0,-13 4,-25 11,-35 7,-11 18,-19 32,-25 14,-5 29,-8 47,-8 20,0 38,4 52,10 14,7 25,17 31,28 7,12 10,23 10,33 0,2 0,3 0,6l-33 2c0,-7 -1,-12 -2,-17 -2,-7 -6,-13 -11,-18 -5,-4 -11,-8 -20,-11 -8,-3 -18,-5 -28,-5 -19,0 -33,4 -44,13 -8,6 -11,15 -11,25 0,7 1,12 4,17 4,5 10,10 18,15 6,3 20,10 43,20 18,8 31,14 38,19 9,6 16,13 21,22 5,9 7,19 7,30 0,14 -4,27 -12,38 -9,12 -20,21 -35,27 -15,7 -32,10 -51,10 -29,0 -52,-6 -71,-19 -18,-12 -27,-35 -27,-68zm233 83l54 -256 34 0 -54 256 -34 0zm94 0l53 -256 36 0 42 96c13,29 23,54 31,74 4,12 9,27 15,47 3,-22 7,-44 12,-67l31 -150 34 0 -54 256 -34 0 -62 -148c-11,-26 -20,-50 -27,-73 -2,19 -6,41 -11,65l-33 156 -33 0zm257 0l54 -256 185 0 -6 29 -151 0 -17 80 148 0 -6 29 -148 0 -19 89 162 0 -6 29 -196 0zm248 -83l33 -3 0 9c0,10 2,19 7,27 4,8 12,15 22,19 11,4 23,7 37,7 21,0 36,-5 47,-14 11,-9 16,-19 16,-30 0,-8 -3,-16 -8,-22 -6,-7 -22,-16 -48,-27 -20,-9 -34,-15 -41,-20 -11,-7 -20,-16 -25,-25 -6,-8 -8,-18 -8,-30 0,-13 3,-25 10,-35 8,-11 18,-19 32,-25 14,-5 29,-8 47,-8 21,0 38,4 52,10 15,7 25,17 31,28 7,12 10,23 10,33 0,2 0,3 0,6l-33 2c0,-7 -1,-12 -2,-17 -2,-7 -6,-13 -11,-18 -5,-4 -11,-8 -20,-11 -8,-3 -18,-5 -28,-5 -19,0 -33,4 -43,13 -8,6 -12,15 -12,25 0,7 1,12 5,17 3,5 9,10 17,15 6,3 21,10 43,20 18,8 31,14 38,19 9,6 16,13 21,22 5,9 8,19 8,30 0,14 -5,27 -13,38 -8,12 -20,21 -35,27 -15,7 -32,10 -51,10 -29,0 -52,-6 -71,-19 -18,-12 -27,-35 -27,-68zm238 0l33 -3 0 9c0,10 2,19 7,27 4,8 12,15 22,19 11,4 23,7 37,7 21,0 36,-5 47,-14 11,-9 16,-19 16,-30 0,-8 -3,-16 -9,-22 -5,-7 -21,-16 -47,-27 -20,-9 -34,-15 -41,-20 -12,-7 -20,-16 -25,-25 -6,-8 -9,-18 -9,-30 0,-13 4,-25 11,-35 7,-11 18,-19 32,-25 14,-5 29,-8 47,-8 21,0 38,4 52,10 15,7 25,17 31,28 7,12 10,23 10,33 0,2 0,3 0,6l-33 2c0,-7 -1,-12 -2,-17 -2,-7 -6,-13 -11,-18 -5,-4 -11,-8 -20,-11 -8,-3 -18,-5 -28,-5 -19,0 -33,4 -44,13 -7,6 -11,15 -11,25 0,7 1,12 4,17 4,5 10,10 18,15 6,3 20,10 43,20 18,8 31,14 38,19 9,6 16,13 21,22 5,9 8,19 8,30 0,14 -5,27 -13,38 -9,12 -20,21 -35,27 -15,7 -32,10 -51,10 -29,0 -52,-6 -71,-19 -18,-12 -27,-35 -27,-68z"/>
   <path fill="#7491AD" fill-rule="nonzero" d="M1551 463l74 0 137 241 136 -241 74 0 -180 302 0 221 -62 0 0 -221 -179 -302zm855 158l-62 0c-2,-16 -6,-31 -13,-44 -6,-14 -15,-25 -25,-34 -11,-10 -23,-17 -38,-22 -14,-5 -30,-8 -48,-8 -24,0 -45,5 -64,15 -18,9 -34,23 -47,41 -13,18 -23,40 -30,66 -7,26 -11,56 -11,89 0,35 4,65 11,91 7,26 17,48 30,66 13,18 29,32 47,41 19,9 40,14 63,14 38,0 67,-10 88,-30 21,-21 34,-49 37,-86l62 0c-2,29 -8,54 -18,75 -11,22 -24,41 -40,55 -17,15 -36,26 -58,34 -22,8 -45,11 -70,11 -33,0 -63,-6 -89,-19 -27,-12 -49,-30 -68,-54 -18,-23 -33,-52 -43,-85 -10,-34 -15,-71 -15,-112 0,-42 5,-79 15,-113 10,-33 25,-61 43,-85 19,-23 41,-41 68,-54 26,-13 56,-19 89,-19 24,0 47,4 69,12 22,8 41,20 58,34 17,15 30,32 41,53 10,20 16,43 18,68zm283 -167c32,0 62,6 88,19 27,13 50,31 70,55 19,24 34,52 45,85 11,34 16,71 16,112 0,41 -5,78 -16,111 -11,34 -26,62 -46,86 -19,23 -42,41 -69,54 -27,13 -56,19 -88,19 -32,0 -62,-6 -89,-20 -27,-13 -50,-31 -70,-55 -19,-23 -34,-52 -45,-85 -11,-33 -16,-70 -16,-110 0,-40 5,-76 16,-110 10,-33 25,-62 44,-85 20,-24 43,-43 70,-56 27,-13 57,-20 90,-20zm-1 482c24,0 45,-5 64,-15 20,-10 36,-24 50,-42 14,-19 25,-41 32,-67 8,-26 12,-55 12,-88 0,-32 -4,-62 -12,-88 -7,-26 -18,-49 -32,-67 -14,-18 -30,-32 -49,-41 -19,-10 -40,-15 -63,-15 -23,0 -45,5 -64,15 -19,9 -36,23 -50,41 -14,18 -25,40 -32,66 -8,26 -12,56 -12,89 0,33 4,63 12,89 7,26 18,48 32,67 14,18 30,32 50,42 19,9 40,14 62,14zm500 -482c33,0 62,6 89,19 27,13 50,31 69,55 20,24 35,52 46,85 11,34 16,71 16,112 0,41 -5,78 -17,111 -10,34 -26,62 -45,86 -20,23 -43,41 -70,54 -26,13 -56,19 -88,19 -32,0 -61,-6 -88,-20 -27,-13 -50,-31 -70,-55 -19,-23 -34,-52 -45,-85 -11,-33 -17,-70 -17,-110 0,-40 6,-76 16,-110 11,-33 26,-62 45,-85 19,-24 43,-43 70,-56 27,-13 57,-20 89,-20zm0 482c23,0 45,-5 64,-15 19,-10 36,-24 50,-42 14,-19 24,-41 32,-67 8,-26 11,-55 11,-88 0,-32 -3,-62 -11,-88 -8,-26 -18,-49 -32,-67 -14,-18 -30,-32 -49,-41 -20,-10 -40,-15 -63,-15 -24,0 -45,5 -64,15 -20,9 -36,23 -50,41 -14,18 -25,40 -33,66 -8,26 -12,56 -12,89 0,33 4,63 12,89 8,26 19,48 33,67 14,18 30,32 49,42 19,9 40,14 63,14zm662 50l-63 0 -240 -413 0 413 -57 0 0 -523 61 0 241 413 0 -413 58 0 0 523z"/>
   <polygon fill="#50514F" fill-rule="nonzero" points="1223,260 1271,33 1185,33 1191,4 1394,4 1388,33 1305,33 1257,260 "/>
   <path fill="#50514F" fill-rule="nonzero" d="M2061 260l53 -256 82 0c14,0 25,1 33,2 11,2 21,6 29,10 8,5 14,12 19,21 4,8 7,18 7,28 0,14 -4,26 -12,37 -8,11 -20,19 -36,24 14,5 25,12 31,21 7,9 11,20 11,32 0,14 -4,27 -13,40 -8,13 -19,23 -32,30 -14,7 -29,11 -46,11l-126 0zm64 -147l54 0c26,0 45,-4 56,-11 11,-8 17,-20 17,-35 0,-7 -2,-14 -5,-19 -4,-5 -9,-9 -15,-11 -6,-3 -17,-4 -33,-4l-57 0 -17 80zm-24 118l60 0c16,0 27,-1 32,-2 11,-2 21,-5 27,-9 8,-5 13,-11 17,-18 4,-7 6,-15 6,-23 0,-12 -4,-21 -12,-27 -7,-7 -22,-10 -44,-10l-68 0 -18 89z"/>
   <polygon fill="#50514F" fill-rule="nonzero" points="1534,525 1381,525 1381,986 1320,986 1320,525 1169,525 1169,463 1534,463 "/>
  </g>
 </g>
</svg>
