<?xml version="1.0" encoding="UTF-8"?>
<!DOCTYPE svg PUBLIC "-//W3C//DTD SVG 1.1//EN" "http://www.w3.org/Graphics/SVG/1.1/DTD/svg11.dtd">
<!-- Creator: CorelDRAW X8 -->
<svg xmlns="http://www.w3.org/2000/svg" xml:space="preserve" width="240px" height="150px" version="1.1" shape-rendering="geometricPrecision" text-rendering="geometricPrecision" image-rendering="optimizeQuality" fill-rule="evenodd" clip-rule="evenodd"
viewBox="0 0 240000 150000"
 xmlns:xlink="http://www.w3.org/1999/xlink">
 <g id="Layer_x0020_1">
  <metadata id="CorelCorpID_0Corel-Layer"/>
  <rect fill="#7491AD" width="240000" height="150000"/>
  <g id="_670151300432">
   <path fill="#FFFCFF" d="M132995 75075l27686 27686c2433,2432 2433,6408 0,8838l0 2c-2431,2431 -6406,2431 -8837,0l-27688 -27687 8839 -8838 0 -1z"/>
   <path fill="#FFFCFF" d="M137463 38661c13729,13730 13729,35991 0,49720 -13730,13728 -35991,13728 -49719,0 -13728,-13729 -13728,-35990 0,-49720 13728,-13728 35989,-13728 49719,0zm-8840 8839c8848,8847 8848,23194 0,32042 -8848,8848 -23194,8848 -32042,0 -8847,-8848 -8847,-23195 0,-32042 8848,-8848 23194,-8848 32042,0z"/>
  </g>
 </g>
</svg>
